# xmcd
# 
# Track frame offsets:
#     150
#     3053
#     31131
#     49617
#     91794
#     115568
#     144482
#     158030
#     174156
#     199291
#     219028
# 
# Disc length: 3284
# 
# Revision: 3
# Processed by: cddbd v1.5.2PL0 Copyright (c) Steve Scherf et al.
# Submitted via: fre:ac v1.0.31
# 
DISCID=750cd20b
DTITLE=Buddy Guy - Live At Legends
DYEAR=2012
DGENRE=Blues
TTITLE0=Intro
TTITLE1=Best Damn Fool
TTITLE2=Mannish Boy
TTITLE3=I Just Want To Make Love To You/Chicken Heads
TTITLE4=Skin Deep
TTITLE5=Damn Right I Got The Blues
TTITLE6=Boom Boom/Strange Brew
TTITLE7=Voodoo Chile/Sunshine Of Your Love
TTITLE8=Polka Dot Love
TTITLE9=Coming For You
TTITLE10=Country Boy
EXTD=
EXTT0=
EXTT1=
EXTT2=
EXTT3=
EXTT4=
EXTT5=
EXTT6=
EXTT7=
EXTT8=
EXTT9=
EXTT10=
PLAYORDER=
